<svg width="48" height="48" viewBox="0 0 48 48" fill="none" xmlns="http://www.w3.org/2000/svg">
  <defs>
    <linearGradient id="heartGradient" x1="0%" y1="0%" x2="100%" y2="100%">
      <stop offset="0%" style="stop-color:#8B5CF6;stop-opacity:1" />
      <stop offset="50%" style="stop-color:#A855F7;stop-opacity:1" />
      <stop offset="100%" style="stop-color:#3B82F6;stop-opacity:1" />
    </linearGradient>
  </defs>
  
  <!-- Larger Heart shape -->
  <path d="M24 44C24 44 4 30 4 16C4 9 9 4 16 4C19.5 4 22.5 6 24 8C25.5 6 28.5 4 32 4C39 4 44 9 44 16C44 30 24 44 24 44Z" 
        fill="url(#heartGradient)" 
        stroke="white" 
        stroke-width="1.5"/>
  
  <!-- Heartbeat line crossing through the heart -->
  <path d="M8 24 L14 24 L16 18 L18 30 L20 12 L22 36 L24 6 L26 36 L28 12 L30 30 L32 18 L34 24 L40 24" 
        stroke="white" 
        stroke-width="2.5" 
        fill="none" 
        stroke-linecap="round" 
        stroke-linejoin="round"/>
</svg>